<svg width="340" height="340" viewBox="0 0 340 340" fill="none" xmlns="http://www.w3.org/2000/svg">
<path d="M123.237 20.2561C125.394 20.6891 132.712 20.6051 135.135 20.6155L158.942 20.6431L195.43 20.6546C201.887 20.6542 210.746 20.8878 216.981 20.3721C216.463 26.2008 217.051 34.339 216.816 40.5473C220.184 40.2535 226.203 40.5043 229.834 40.478C240.081 40.4035 250.207 40.6838 260.465 40.184C260.425 46.4718 260.725 56.3463 260.32 62.1548C262.362 61.973 266.127 62.0908 268.28 62.095C273.22 62.1408 278.158 62.1055 283.095 61.9893L283.02 83.762C289.93 83.2878 297.242 84.1358 304.527 83.3778C304.295 90.4905 304.492 98.8203 304.487 106.024L304.457 126.209C304.477 128.829 303.99 146.542 304.698 147.376C306.453 147.202 310.098 147.333 311.978 147.339C316.28 147.376 320.585 147.302 324.885 147.117C324.628 156.907 324.75 166.984 324.755 176.799L324.777 223.577C324.785 254.158 324.353 285.358 324.66 315.845C319.098 315.363 305.845 315.333 300.235 315.803C300.157 308.31 300.168 300.818 300.265 293.325C298.155 293.553 294.903 293.468 292.7 293.468C287.95 293.425 283.2 293.46 278.45 293.568L278.427 281.503C278.417 278.88 278.305 275.353 278.573 272.833C276.455 273.025 272.555 272.873 270.295 272.865C265.785 272.865 261.275 272.903 256.765 272.978C256.99 279.623 256.8 286.895 256.887 293.635C251.27 293.16 241.268 293.488 235.325 293.518C235.437 294.4 235.444 295.278 235.454 296.165C235.528 302.71 235.38 309.263 235.568 315.805C227.518 315.263 217.714 315.543 209.531 315.51C204.381 315.49 195.11 315.258 190.305 315.738C190.087 306.47 190.362 296.82 190.247 287.52C190.216 284.985 190.106 274.698 190.513 272.71C176.865 272.63 163.216 272.635 149.568 272.728C149.759 273.87 149.745 275.06 149.76 276.22C149.922 289.405 149.549 302.633 149.931 315.813C144.529 315.275 135.037 315.483 129.3 315.513C121.549 315.555 112.187 315.263 104.61 315.705C104.697 311.405 104.722 307.105 104.683 302.805C104.664 300.085 104.511 295.995 104.823 293.445C98.0702 293.705 89.5915 293.08 83.0787 293.645C82.915 288.788 82.876 277.755 83.1652 272.973C75.9705 272.858 68.7742 272.868 61.5797 273.003C62.164 278.098 61.6532 288.01 61.9017 293.765C57.567 293.198 44.82 293.52 39.7702 293.475C40.224 299.078 39.953 309.83 39.9917 315.79C34.4777 315.415 21.0301 315.245 15.5425 315.738L15.6154 215.092C15.7537 192.448 15.709 169.802 15.4813 147.158C22.3814 147.507 29.8877 147.015 36.557 147.423C36.0755 142.278 36.437 133.022 36.3905 127.62C36.2655 113.106 36.635 98.4863 36.248 83.9723C43.245 83.8958 51.0772 83.8888 58.0492 84.096C57.8355 77.0108 57.968 69.1468 57.9497 62.0225C63.566 62.6415 73.8167 62.2083 79.8635 62.2925C79.677 60.7568 79.6757 59.2078 79.678 57.6628C79.686 51.9263 79.4797 46.1615 79.7125 40.4293L123.439 40.5705C123.183 38.8733 123.26 35.1128 123.256 33.22L123.237 20.2561Z" fill="#66CDC6"/>
<path d="M236.027 83.5766C250.948 83.6743 265.87 83.6603 280.79 83.5343C281.013 90.7376 280.96 98.7858 280.845 106.004C288.728 105.969 296.607 105.975 304.487 106.024L304.457 126.209C304.477 128.829 303.99 146.542 304.698 147.376L304.358 147.643C304.128 150.01 304.215 153.566 304.212 156.004L304.237 170.754C297.642 170.74 287.245 170.374 280.965 170.723C280.52 176.418 280.915 186.99 280.967 193.001L236.068 192.992L236.046 170.724L213.985 170.679L213.975 106.017C221.315 105.927 228.746 105.991 236.093 105.997L236.027 83.5766Z" fill="#FEFEFE"/>
<path d="M304.457 126.208C304.477 128.829 303.99 146.542 304.698 147.376L304.358 147.643C304.128 150.009 304.215 153.566 304.212 156.003L304.237 170.754C297.642 170.74 287.245 170.374 280.965 170.722L258.483 170.753L258.475 127.005L291.495 127.017C293.26 127.019 302.968 127.236 304.168 126.888L304.457 126.208Z" fill="#345AA8"/>
<path d="M104.449 83.5465C118.731 83.7782 133.688 83.561 148.026 83.5375C148.335 86.077 148.249 89.9235 148.244 92.5802L148.199 105.934C154.926 106.19 163.18 105.986 169.995 106.007C169.565 111.955 169.855 120.88 169.887 127.018C169.802 141.249 169.7 156.313 169.947 170.512C162.799 170.51 155.171 170.39 148.06 170.539C147.903 177.741 148.095 185.709 148.082 192.993L104.429 193.004C104.619 185.936 104.429 177.903 104.418 170.762L82.0078 170.726L81.997 105.898C89.3875 105.706 96.9188 106.13 104.445 105.854L104.449 83.5465Z" fill="#FEFEFE"/>
<path d="M169.887 127.018C169.802 141.249 169.7 156.313 169.947 170.512C162.799 170.51 155.171 170.39 148.06 170.539L125.181 170.567C125.46 156.36 125.243 141.272 125.202 127.032L169.887 127.018Z" fill="#345AA8"/>
</svg>
